<svg xmlns="http://www.w3.org/2000/svg" width="288" height="396" fill="none"><path fill="#438B46" d="M66.61 176.073c25.99 20.967 60.341 111.916 74.268 154.769l185.359-10.217c3.333-.184 4.988-4.128 2.784-6.635l-44.57-50.711c-6.919-28.348 22.091-74.055 37.46-93.365-28.883-2.791-66.827 50.145-82.188 76.962-20.034-10.096-11.291-57.607-4.415-80.101-17.371 16.25-24.6 44.478-26.696 61.281 1.351-44.297-46.017-122.037-71.094-156.93 34.513 96.093 17.249 180.432 14.215 180.6-23.577-47.881-66.572-70.386-85.122-75.653Z"/><path fill="#47934A" d="M90.596 187.832c23.793 19.194 55.24 102.455 67.99 141.686l168.996-9.316c3.333-.183 4.988-4.127 2.784-6.634l-40.343-45.902c-6.334-25.952 20.223-67.796 34.294-85.473-26.442-2.555-61.179 45.906-75.242 70.456-18.34-9.242-10.336-52.738-4.042-73.33-15.901 14.876-22.52 40.719-24.439 56.101 1.237-40.552-42.126-111.721-65.084-143.664 31.595 87.97 15.791 165.18 13.014 165.333-21.585-43.834-60.945-64.436-77.928-69.257Z"/></svg>