<svg xmlns="http://www.w3.org/2000/svg" width="247" height="262" fill="none"><path fill="#438B46" d="M104.615 206.837C82.398 187.918-6.152 148.082-47.651 130.529l-8.773-95.777c-.261-2.853 2.378-3.991 5.02-2.164l52.667 36.43C28.485 79.394 68.37 74.483 84.91 70.73c5.493 16.216-40.267 24.246-63.834 26.234 11.448 13.161 55.044 19.592 75.412 21.163-13.477 5.548-39.176 2.823-54.694.012 41.326 9.66 118.813 53.412 153.972 75.106-93.382-41.13-170.597-51.607-170.451-50.012 47.166 23.932 72.519 52.375 79.299 63.604Z"/><path fill="#47934A" d="M91.217 191.157c-20.339-17.32-101.404-53.789-139.395-69.859l-7.985-87.172c-.261-2.853 2.378-3.99 5.02-2.163L-3.4 64.987c24.921 9.499 61.436 5.003 76.578 1.568C78.207 81.4 36.315 88.75 14.74 90.57c10.48 12.048 50.39 17.936 69.036 19.374-12.337 5.079-35.864 2.585-50.07.011 37.832 8.844 108.769 48.897 140.957 68.757-85.488-37.653-156.177-47.244-156.043-45.784 43.18 21.909 66.389 47.947 72.596 58.228Z"/></svg>