<svg xmlns="http://www.w3.org/2000/svg" width="202" height="316" fill="none"><path fill="#438B46" d="M103.72 276.372C75.93 257.857-21.132 252.329-66.19 251.88l-45.78-179.907c-.824-3.235 2.443-5.995 5.495-4.644L-44.74 94.66c29.119-1.89 64.036-43.26 77.855-63.71C44.43 57.672 5.292 109.732-15.691 132.42c15.634 16.09 58.344-6.485 77.745-19.783-10.3 21.44-35.066 36.794-50.47 43.828 41.858-14.559 130.218 7.344 171.021 20.816-102.019-4.14-177.313 37.596-176.564 40.541 52.745 8.15 87.096 42.429 97.679 58.55Z"/><path fill="#47934A" d="M85.316 257.01C59.876 240.06-28.982 235-70.231 234.589L-111.97 70.563c-.823-3.234 2.443-5.995 5.495-4.644l55.88 24.74C-23.936 88.927 8.03 51.054 20.68 32.334 31.038 56.796-4.79 104.456-24 125.227c14.312 14.729 53.412-5.937 71.173-18.111C37.743 126.744 15.07 140.8.97 147.239c38.32-13.329 119.211 6.723 156.564 19.057-93.395-3.791-162.325 34.417-161.639 37.113 48.287 7.462 79.734 38.843 89.422 53.601Z"/></svg>