<svg xmlns="http://www.w3.org/2000/svg" width="187" height="321" fill="none"><path fill="#438B46" d="M161.409 242.87c15.361-24.811 87.474-89.832 121.611-119.242l-20.956-93.867c-.624-2.796-3.485-3.072-5.441-.524L217.63 80.035c-22.741 18.208-62.217 25.738-79.112 27.227-.267 17.119 45.755 10.761 68.799 5.442-6.87 16.033-46.408 35.496-65.317 43.224 14.527 1.158 38.16-9.3 52.073-16.725-36.387 21.843-96.769 87.207-123.603 118.619 76.316-67.732 146.622-101.335 146.971-99.771-37.581 37.217-53.013 72.053-56.032 84.819Z"/><path fill="#47934A" d="M169.366 223.841c14.063-22.713 80.08-82.238 111.331-109.162l-19.073-85.434c-.624-2.796-3.485-3.072-5.441-.524l-35.348 46.05c-20.819 16.67-56.958 23.563-72.425 24.926-.245 15.672 41.887 9.851 62.984 4.981-6.29 14.678-42.485 32.496-59.797 39.571 13.3 1.06 34.935-8.514 47.672-15.311-33.311 19.996-88.589 79.835-113.155 108.592 69.865-62.007 134.228-92.769 134.548-91.337-34.404 34.07-48.533 65.962-51.296 77.648Z"/></svg>