<svg xmlns="http://www.w3.org/2000/svg" width="136" height="25" fill="none"><g opacity=".92"><path fill="#fff" fill-opacity=".8" d="M16.8 3.245h3.091l-6.755 7.722 7.947 10.507H14.86l-4.874-6.373-5.577 6.373H1.315l7.226-8.259-7.624-9.97h6.38l4.407 5.825 5.095-5.825Zm-1.086 16.378h1.713L6.367 5h-1.84l11.187 14.624Z"/><g fill="#fff" fill-opacity=".8" clip-path="url(#a)"><path d="M48 3.48c2.94 0 3.287.014 4.443.065 1.074.048 1.654.228 2.041.378.511.198.88.439 1.263.821.387.387.623.752.821 1.263.15.387.33.972.378 2.041.052 1.16.065 1.509.065 4.443 0 2.94-.013 3.287-.065 4.443-.047 1.075-.228 1.655-.378 2.041-.198.512-.438.881-.82 1.264a3.385 3.385 0 0 1-1.264.82c-.387.15-.971.331-2.041.378-1.16.052-1.508.065-4.443.065-2.94 0-3.287-.013-4.443-.064-1.074-.048-1.654-.228-2.041-.379a3.404 3.404 0 0 1-1.263-.82 3.384 3.384 0 0 1-.821-1.264c-.15-.386-.33-.97-.378-2.04-.052-1.16-.065-1.509-.065-4.444 0-2.939.013-3.287.065-4.443.047-1.074.228-1.654.378-2.04.198-.512.438-.881.82-1.264a3.384 3.384 0 0 1 1.264-.82c.387-.15.971-.331 2.041-.379 1.156-.051 1.504-.064 4.443-.064Zm0-1.98c-2.986 0-3.36.013-4.533.064-1.169.052-1.972.241-2.669.512a5.369 5.369 0 0 0-1.95 1.272 5.39 5.39 0 0 0-1.272 1.946c-.27.7-.46 1.5-.511 2.669C37.013 9.14 37 9.513 37 12.5c0 2.986.013 3.36.065 4.533.051 1.169.24 1.973.51 2.669.284.726.658 1.34 1.273 1.95.61.61 1.224.989 1.946 1.268.7.27 1.5.46 2.669.511 1.172.052 1.546.065 4.533.065 2.986 0 3.36-.013 4.533-.065 1.169-.051 1.972-.24 2.668-.511a5.376 5.376 0 0 0 1.947-1.268c.61-.61.988-1.224 1.267-1.946.271-.7.46-1.5.512-2.668.051-1.174.064-1.547.064-4.534 0-2.986-.013-3.36-.064-4.533-.052-1.169-.241-1.972-.512-2.668a5.152 5.152 0 0 0-1.259-1.955 5.377 5.377 0 0 0-1.946-1.268c-.7-.27-1.5-.46-2.669-.511C51.36 1.513 50.988 1.5 48 1.5Z"/><path d="M48 6.85c-3.12 0-5.65 2.53-5.65 5.65 0 3.12 2.53 5.65 5.65 5.65 3.12 0 5.65-2.53 5.65-5.65 0-3.12-2.53-5.65-5.65-5.65Zm0 9.315a3.666 3.666 0 1 1 .001-7.331A3.666 3.666 0 0 1 48 16.165ZM55.193 6.626a1.32 1.32 0 1 1-2.639 0 1.32 1.32 0 0 1 2.639 0Z"/></g><g clip-path="url(#b)"><path fill="#fff" fill-opacity=".8" d="M94.371 1.5H75.624C74.726 1.5 74 2.209 74 3.086V21.91c0 .877.726 1.59 1.624 1.59h18.748c.897 0 1.628-.713 1.628-1.585V3.085c0-.876-.73-1.585-1.629-1.585ZM80.528 20.247h-3.266V9.746h3.266v10.501ZM78.894 8.315a1.892 1.892 0 1 1-.007-3.783 1.892 1.892 0 0 1 .007 3.783Zm13.853 11.932h-3.261v-5.104c0-1.216-.022-2.785-1.697-2.785-1.698 0-1.955 1.328-1.955 2.699v5.19h-3.257V9.746h3.128v1.435h.043c.434-.825 1.5-1.697 3.085-1.697 3.304 0 3.914 2.174 3.914 5.001v5.762Z"/></g><path fill="#fff" fill-opacity=".8" d="M134.438 12.432c0-.054 0-.115-.003-.186-.002-.198-.007-.42-.012-.657-.02-.68-.054-1.36-.108-2-.073-.88-.18-1.615-.327-2.167a3.4 3.4 0 0 0-2.4-2.405c-.691-.185-2.043-.3-3.947-.371-.906-.034-1.875-.056-2.845-.068-.339-.005-.654-.008-.937-.01h-.718c-.283.002-.598.005-.937.01-.97.012-1.939.034-2.845.068-1.904.073-3.259.188-3.947.371a3.4 3.4 0 0 0-2.4 2.405c-.149.552-.254 1.287-.327 2.168a36.932 36.932 0 0 0-.12 2.656c0 .07-.003.132-.003.186v.136c0 .054 0 .115.003.186.002.198.007.42.012.657.02.68.054 1.36.108 2 .073.88.18 1.615.327 2.167a3.4 3.4 0 0 0 2.4 2.405c.688.186 2.043.3 3.947.371.906.034 1.875.056 2.845.068.339.005.654.008.937.01h.718c.283-.002.598-.005.937-.01.97-.012 1.939-.034 2.845-.068 1.904-.073 3.259-.188 3.947-.371a3.396 3.396 0 0 0 2.4-2.405c.149-.552.254-1.287.327-2.168a36.935 36.935 0 0 0 .12-2.656c0-.07.003-.132.003-.186v-.136Zm-1.758.127c0 .05 0 .107-.003.173-.002.19-.007.4-.012.627-.017.65-.051 1.3-.103 1.902-.065.786-.158 1.43-.273 1.863a1.643 1.643 0 0 1-1.157 1.16c-.513.136-1.804.246-3.56.312a111.1 111.1 0 0 1-3.723.076h-.698l-.923-.007a111.45 111.45 0 0 1-2.8-.069c-1.756-.068-3.05-.176-3.56-.312a1.647 1.647 0 0 1-1.157-1.16c-.115-.432-.208-1.077-.273-1.863a34.094 34.094 0 0 1-.115-2.53c0-.065-.003-.124-.003-.172v-.118c0-.05 0-.107.003-.173.002-.19.007-.4.012-.627.017-.65.051-1.3.103-1.902.065-.786.158-1.43.273-1.863a1.643 1.643 0 0 1 1.157-1.16c.513-.136 1.804-.246 3.56-.312a110.776 110.776 0 0 1 3.723-.076h.698l.923.007c.955.013 1.909.035 2.8.069 1.756.068 3.05.176 3.56.312a1.647 1.647 0 0 1 1.157 1.16c.115.432.208 1.077.273 1.863a34.097 34.097 0 0 1 .115 2.53c0 .065.003.124.003.172v.118Zm-11.353 3.213 5.664-3.296-5.664-3.247v6.543Z"/></g><defs><clipPath id="a"><path fill="#fff" d="M37 1.5h22v22H37z"/></clipPath><clipPath id="b"><path fill="#fff" d="M74 1.5h22v22H74z"/></clipPath></defs></svg>